# xmcd
#
# Track frame offsets: 
#        150
#        25831
#        46426
#        66923
#        85817
#        108724
#        127251
#        152255
#        172426
#        192661
#
# Disc length: 2854 seconds
#
# Revision: 2
# Processed by: cddbd v1.5.2PL0 Copyright (c) Steve Scherf et al.
# Submitted via: ExactAudioCopy v0.99pb4
#
DISCID=920b240a
DTITLE=Destinity - The Inside
DYEAR=2008
DGENRE=Thrash Death Metal
TTITLE0=My senseless theory
TTITLE1=Murder within
TTITLE2=Thing I will never feel
TTITLE3=Still remember
TTITLE4=A thousand falling skies
TTITLE5=Inhuman corrosive report
TTITLE6=Ready to leave
TTITLE7=Enemy process
TTITLE8=Escaping reality
TTITLE9=The inside
EXTD=
EXTT0=
EXTT1=
EXTT2=
EXTT3=
EXTT4=
EXTT5=
EXTT6=
EXTT7=
EXTT8=
EXTT9=
PLAYORDER=
